<?xml version="1.0" standalone="no"?>
<!DOCTYPE svg PUBLIC "-//W3C//DTD SVG 20010904//EN"
 "http://www.w3.org/TR/2001/REC-SVG-20010904/DTD/svg10.dtd">
<svg version="1.0" xmlns="http://www.w3.org/2000/svg"
 width="857.000000pt" height="857.000000pt" viewBox="0 0 857.000000 857.000000"
 preserveAspectRatio="xMidYMid meet">
<metadata>
Created by potrace 1.11, written by Peter Selinger 2001-2013
</metadata>
<g transform="translate(0.000000,857.000000) scale(0.100000,-0.100000)"
fill="#000000" stroke="none">
<path d="M4167 8552 c-2 -4 -4 -184 -4 -400 0 -215 -3 -395 -7 -400 -4 -4
-645 -7 -1424 -7 l-1417 0 0 -542 c0 -537 0 -543 20 -544 11 0 97 -1 192 -1
121 0 173 -3 176 -11 2 -7 5 -43 6 -82 2 -38 4 -86 6 -105 3 -32 11 -161 20
-306 2 -32 6 -99 9 -149 10 -132 21 -304 31 -480 4 -55 8 -117 9 -137 l3 -38
-78 0 c-70 0 -77 -2 -74 -18 2 -10 6 -70 10 -133 3 -63 8 -135 10 -160 3 -25
7 -94 10 -155 3 -60 8 -134 10 -164 5 -62 12 -182 20 -315 3 -49 7 -117 10
-150 5 -69 14 -221 20 -321 4 -66 10 -158 20 -309 11 -163 17 -254 20 -313 7
-122 16 -268 20 -312 2 -25 6 -94 10 -155 3 -60 7 -130 10 -155 2 -25 7 -94
10 -155 3 -60 8 -137 10 -170 3 -33 7 -100 10 -150 3 -49 8 -126 10 -170 3
-44 8 -116 11 -160 8 -99 11 -155 13 -222 l1 -53 78 0 c56 0 79 -4 79 -12 0
-29 15 -276 18 -313 2 -22 6 -92 10 -155 4 -63 8 -133 10 -155 2 -22 7 -89 10
-150 10 -184 13 -232 30 -470 2 -27 7 -100 10 -160 6 -127 11 -175 19 -183 7
-7 4296 -9 4297 -2 2 8 7 66 13 175 9 139 15 239 21 315 3 36 7 108 10 160 3
52 7 127 10 165 3 39 7 108 10 155 3 47 8 110 10 140 2 30 7 107 10 170 4 63
9 133 10 155 2 22 5 68 6 103 l2 62 79 0 78 0 1 53 c2 63 4 103 13 232 4 55 9
132 11 170 3 39 7 105 10 148 3 42 7 113 10 157 24 386 25 401 31 470 2 36 7
101 9 145 2 44 7 121 10 170 3 50 8 124 11 165 6 93 11 185 19 315 3 55 8 125
10 155 3 30 7 100 10 155 3 55 7 123 10 150 2 28 7 95 10 150 11 179 21 335
30 470 2 33 7 110 10 170 4 61 8 130 10 155 2 25 7 101 10 170 4 69 9 128 12
133 2 4 -31 7 -75 7 l-79 0 3 33 c1 17 5 86 9 152 3 66 8 139 10 162 2 23 7
91 10 150 4 59 8 128 10 153 2 25 7 95 10 155 4 61 8 133 10 160 2 28 6 104
10 170 7 109 10 149 14 166 0 4 81 7 179 7 97 0 184 1 192 1 13 1 15 68 15
541 0 297 -2 541 -5 541 -3 1 -108 2 -234 3 -191 1 -230 4 -238 16 -4 8 -53
152 -108 320 -56 167 -105 309 -110 314 -6 6 -20 11 -33 12 -12 1 -74 4 -137
8 -63 4 -133 9 -155 11 -22 2 -94 7 -160 10 -66 4 -136 8 -155 10 -40 4 -174
13 -300 20 -47 3 -107 8 -135 10 -27 2 -95 7 -150 10 -55 3 -134 8 -175 11
-127 9 -171 12 -280 19 -58 3 -130 8 -160 10 -30 2 -93 6 -140 9 -47 3 -118 8
-158 11 -160 12 -241 15 -245 7z"/>
</g>
</svg>
