<svg id="Ebene_1" data-name="Ebene 1" xmlns="http://www.w3.org/2000/svg" viewBox="0 0 593 855.49"><defs><style>.cls-1{stroke:#000;stroke-miterlimit:10;stroke-width:23px;}.cls-2{fill:#e9edf5;}.cls-3{fill:#de4726;}.cls-4{fill:#d9351c;}.cls-5{fill:#fff;}.cls-6{fill:#ff936b;}.cls-7{fill:#ff8257;}</style></defs><title>starver_icon</title><polygon class="cls-1" points="543.37 178.99 533.58 332.71 548.7 332.71 526.37 683.53 511.25 683.53 501.03 843.99 91.97 843.99 81.75 683.53 66.63 683.53 44.3 332.71 59.42 332.71 49.63 178.99 11.5 178.99 11.5 93.03 296.29 93.03 296.29 12.29 515.25 26.79 537.25 93.03 581.5 93.03 581.5 178.99 543.37 178.99"/><path class="cls-2" d="M730.75,110.65l-219-14.5V204h250Z" transform="translate(-215.5 -83.86)"/><path class="cls-3" d="M716.53,927.85H307.47L262.23,217.23H761.77Z" transform="translate(-215.5 -83.86)"/><path class="cls-4" d="M761.77,217.23h-250V927.85H716.53Z" transform="translate(-215.5 -83.86)"/><path class="cls-5" d="M764.2,416.57H259.8l22.33,350.82H741.87Z" transform="translate(-215.5 -83.86)"/><path class="cls-2" d="M764.2,416.57H511.79V767.39H741.87Z" transform="translate(-215.5 -83.86)"/><path class="cls-6" d="M227,176.89H797v86H227Z" transform="translate(-215.5 -83.86)"/><path class="cls-7" d="M511.79,176.89H797v86H511.79Z" transform="translate(-215.5 -83.86)"/><path class="cls-6" d="M596.36,523.37,453.76,666c31.69,15.89,78.25,4.63,112.75-29.86S612.26,555.05,596.36,523.37Z" transform="translate(-215.5 -83.86)"/><path class="cls-7" d="M596.36,523.37,511.79,608v61.23c19-5.45,38.25-16.61,54.72-33.08C601,601.62,612.26,555.05,596.36,523.37Z" transform="translate(-215.5 -83.86)"/><path class="cls-6" d="M570.24,497.24c-31.68-15.9-78.25-4.63-112.74,29.86s-45.76,81.06-29.85,112.73Z" transform="translate(-215.5 -83.86)"/><path class="cls-7" d="M511.79,494.14V555.7l58.45-58.46C553.56,488.88,532.77,488.05,511.79,494.14Z" transform="translate(-215.5 -83.86)"/></svg>